<mxfile host="65bd71144e" scale="1" border="10">
    <diagram id="OokDwKcum5VtWVeuCbXh" name="DAS Lanchonete FIAP">
        <mxGraphModel dx="1017" dy="779" grid="0" gridSize="10" guides="1" tooltips="1" connect="1" arrows="1" fold="1" page="1" pageScale="1" pageWidth="1100" pageHeight="850" background="#ffffff" math="0" shadow="0">
            <root>
                <mxCell id="0"/>
                <mxCell id="1" parent="0"/>
                <mxCell id="15" value="" style="shape=hexagon;perimeter=hexagonPerimeter2;whiteSpace=wrap;html=1;fixedSize=1;rotation=0;fillColor=#dae8fc;strokeColor=#6c8ebf;" parent="1" vertex="1">
                    <mxGeometry x="309" y="149" width="360" height="310" as="geometry">
                        <mxPoint x="50" as="offset"/>
                    </mxGeometry>
                </mxCell>
                <mxCell id="14" value="" style="shape=hexagon;perimeter=hexagonPerimeter2;whiteSpace=wrap;html=1;fixedSize=1;rotation=0;fillColor=#fff2cc;strokeColor=#d6b656;" parent="1" vertex="1">
                    <mxGeometry x="359" y="189" width="260" height="240" as="geometry">
                        <mxPoint x="50" as="offset"/>
                    </mxGeometry>
                </mxCell>
                <mxCell id="7" value="Banco de dados" style="shape=cylinder3;whiteSpace=wrap;html=1;boundedLbl=1;backgroundOutline=1;size=15;fillColor=#e1d5e7;strokeColor=#9673a6;" parent="1" vertex="1">
                    <mxGeometry x="724" y="422" width="60" height="80" as="geometry"/>
                </mxCell>
                <mxCell id="8" value="Web API" style="ellipse;shape=cloud;whiteSpace=wrap;html=1;fillColor=#f5f5f5;fontColor=#333333;strokeColor=#666666;" parent="1" vertex="1">
                    <mxGeometry x="129" y="130" width="120" height="80" as="geometry"/>
                </mxCell>
                <mxCell id="13" value="" style="shape=hexagon;perimeter=hexagonPerimeter2;whiteSpace=wrap;html=1;fixedSize=1;fillColor=#f8cecc;strokeColor=#b85450;" parent="1" vertex="1">
                    <mxGeometry x="399" y="232.32999999999998" width="176.25" height="156.67" as="geometry"/>
                </mxCell>
                <mxCell id="16" value="Aplicação" style="text;html=1;align=center;verticalAlign=middle;whiteSpace=wrap;rounded=0;fontStyle=1;fontSize=16;" parent="1" vertex="1">
                    <mxGeometry x="453" y="194.32999999999998" width="60" height="30" as="geometry"/>
                </mxCell>
                <mxCell id="17" value="Casos de uso" style="text;html=1;align=center;verticalAlign=middle;whiteSpace=wrap;rounded=0;" parent="1" vertex="1">
                    <mxGeometry x="444" y="394" width="80" height="30" as="geometry"/>
                </mxCell>
                <mxCell id="18" value="Infraestrutura" style="text;html=1;align=center;verticalAlign=middle;whiteSpace=wrap;rounded=0;fontStyle=1;fontSize=16;" parent="1" vertex="1">
                    <mxGeometry x="443" y="155" width="80" height="30" as="geometry"/>
                </mxCell>
                <mxCell id="19" value="Domínio" style="text;html=1;align=center;verticalAlign=middle;whiteSpace=wrap;rounded=0;fontStyle=1;fontSize=16;" parent="1" vertex="1">
                    <mxGeometry x="447.13" y="237.32999999999998" width="80" height="30" as="geometry"/>
                </mxCell>
                <mxCell id="20" value="Controladores" style="text;html=1;align=center;verticalAlign=middle;whiteSpace=wrap;rounded=0;rotation=-80;" parent="1" vertex="1">
                    <mxGeometry x="319" y="224" width="60" height="30" as="geometry"/>
                </mxCell>
                <mxCell id="21" value="Entidades" style="text;html=1;align=center;verticalAlign=middle;whiteSpace=wrap;rounded=0;" parent="1" vertex="1">
                    <mxGeometry x="429" y="279" width="60" height="30" as="geometry"/>
                </mxCell>
                <mxCell id="22" value="Repositórios" style="text;html=1;align=center;verticalAlign=middle;whiteSpace=wrap;rounded=0;" parent="1" vertex="1">
                    <mxGeometry x="489" y="356" width="60" height="30" as="geometry"/>
                </mxCell>
                <mxCell id="23" value="Serviços" style="text;html=1;align=center;verticalAlign=middle;whiteSpace=wrap;rounded=0;" parent="1" vertex="1">
                    <mxGeometry x="419" y="329" width="60" height="30" as="geometry"/>
                </mxCell>
                <mxCell id="24" value="Eventos" style="text;html=1;align=center;verticalAlign=middle;whiteSpace=wrap;rounded=0;" parent="1" vertex="1">
                    <mxGeometry x="499" y="299" width="60" height="30" as="geometry"/>
                </mxCell>
                <mxCell id="25" value="ORM" style="text;html=1;align=center;verticalAlign=middle;whiteSpace=wrap;rounded=0;rotation=-80;" parent="1" vertex="1">
                    <mxGeometry x="599" y="399" width="60" height="30" as="geometry"/>
                </mxCell>
                <mxCell id="26" value="" style="endArrow=classic;startArrow=classic;html=1;entryX=0;entryY=0.5;entryDx=0;entryDy=0;entryPerimeter=0;exitX=0.974;exitY=0.763;exitDx=0;exitDy=0;exitPerimeter=0;strokeWidth=2;" parent="1" target="7" edge="1">
                    <mxGeometry width="50" height="50" relative="1" as="geometry">
                        <mxPoint x="654.6399999999999" y="421.53" as="sourcePoint"/>
                        <mxPoint x="714" y="435" as="targetPoint"/>
                    </mxGeometry>
                </mxCell>
                <mxCell id="28" value="" style="endArrow=classic;startArrow=classic;html=1;exitX=0.925;exitY=0.8;exitDx=0;exitDy=0;exitPerimeter=0;entryX=0;entryY=0.25;entryDx=0;entryDy=0;strokeWidth=2;" parent="1" source="8" target="15" edge="1">
                    <mxGeometry width="50" height="50" relative="1" as="geometry">
                        <mxPoint x="259" y="239" as="sourcePoint"/>
                        <mxPoint x="309" y="189" as="targetPoint"/>
                    </mxGeometry>
                </mxCell>
                <mxCell id="29" value="Domínio" style="rounded=1;whiteSpace=wrap;html=1;fillColor=#f8cecc;strokeColor=#b85450;" parent="1" vertex="1">
                    <mxGeometry x="402.13" y="520" width="120" height="60" as="geometry"/>
                </mxCell>
                <mxCell id="33" style="edgeStyle=none;html=1;" parent="1" source="30" target="31" edge="1">
                    <mxGeometry relative="1" as="geometry"/>
                </mxCell>
                <mxCell id="30" value="Infraestrutura" style="rounded=1;whiteSpace=wrap;html=1;fillColor=#dae8fc;strokeColor=#6c8ebf;" parent="1" vertex="1">
                    <mxGeometry x="243" y="590" width="120" height="60" as="geometry"/>
                </mxCell>
                <mxCell id="34" style="edgeStyle=orthogonalEdgeStyle;html=1;entryX=1;entryY=0.5;entryDx=0;entryDy=0;curved=1;exitX=0.5;exitY=0;exitDx=0;exitDy=0;fillColor=#0050ef;strokeColor=#001DBC;strokeWidth=2;" parent="1" source="31" target="29" edge="1">
                    <mxGeometry relative="1" as="geometry"/>
                </mxCell>
                <mxCell id="31" value="Aplicação" style="rounded=1;whiteSpace=wrap;html=1;fillColor=#fff2cc;strokeColor=#d6b656;" parent="1" vertex="1">
                    <mxGeometry x="563" y="590" width="120" height="60" as="geometry"/>
                </mxCell>
                <mxCell id="32" value="Interface de Usuário" style="rounded=1;whiteSpace=wrap;html=1;fillColor=#d5e8d4;strokeColor=#82b366;" parent="1" vertex="1">
                    <mxGeometry x="399" y="670" width="120" height="60" as="geometry"/>
                </mxCell>
                <mxCell id="35" style="edgeStyle=orthogonalEdgeStyle;html=1;entryX=0;entryY=0.5;entryDx=0;entryDy=0;curved=1;exitX=0.5;exitY=0;exitDx=0;exitDy=0;fillColor=#0050ef;strokeColor=#001DBC;strokeWidth=2;" parent="1" source="30" target="29" edge="1">
                    <mxGeometry relative="1" as="geometry">
                        <mxPoint x="355" y="569.75" as="sourcePoint"/>
                        <mxPoint x="253" y="529.75" as="targetPoint"/>
                    </mxGeometry>
                </mxCell>
                <mxCell id="36" style="edgeStyle=orthogonalEdgeStyle;html=1;entryX=0.5;entryY=1;entryDx=0;entryDy=0;curved=1;fillColor=#0050ef;strokeColor=#001DBC;strokeWidth=2;" parent="1" source="32" target="31" edge="1">
                    <mxGeometry relative="1" as="geometry">
                        <mxPoint x="673.5" y="729.5" as="sourcePoint"/>
                        <mxPoint x="572.5" y="689.5" as="targetPoint"/>
                    </mxGeometry>
                </mxCell>
                <mxCell id="37" style="edgeStyle=orthogonalEdgeStyle;html=1;entryX=0.5;entryY=1;entryDx=0;entryDy=0;curved=1;exitX=0;exitY=0.5;exitDx=0;exitDy=0;dashed=1;dashPattern=12 12;fillColor=#0050ef;strokeColor=#001DBC;strokeWidth=2;" parent="1" source="32" target="30" edge="1">
                    <mxGeometry relative="1" as="geometry">
                        <mxPoint x="209.5" y="720" as="sourcePoint"/>
                        <mxPoint x="313.5" y="670" as="targetPoint"/>
                    </mxGeometry>
                </mxCell>
                <mxCell id="38" value="Lanchonete FIAP - Arquitetura Hexagonal" style="text;html=1;align=center;verticalAlign=middle;whiteSpace=wrap;rounded=0;strokeWidth=1;fontSize=21;" parent="1" vertex="1">
                    <mxGeometry x="280.06" y="30" width="417.87" height="30" as="geometry"/>
                </mxCell>
                <mxCell id="39" value="Adaptadores" style="text;html=1;align=center;verticalAlign=middle;whiteSpace=wrap;rounded=0;rotation=-80;" vertex="1" parent="1">
                    <mxGeometry x="609" y="318" width="60" height="30" as="geometry"/>
                </mxCell>
                <mxCell id="40" value="Serviços de pagamento" style="rounded=1;whiteSpace=wrap;html=1;fillColor=#e1d5e7;strokeColor=#9673a6;" vertex="1" parent="1">
                    <mxGeometry x="736" y="337" width="120" height="60" as="geometry"/>
                </mxCell>
                <mxCell id="41" value="" style="endArrow=classic;startArrow=classic;html=1;entryX=0;entryY=0.5;entryDx=0;entryDy=0;entryPerimeter=0;exitX=0.974;exitY=0.763;exitDx=0;exitDy=0;exitPerimeter=0;strokeWidth=2;" edge="1" parent="1">
                    <mxGeometry width="50" height="50" relative="1" as="geometry">
                        <mxPoint x="665.6399999999999" y="333.53" as="sourcePoint"/>
                        <mxPoint x="735" y="374" as="targetPoint"/>
                    </mxGeometry>
                </mxCell>
            </root>
        </mxGraphModel>
    </diagram>
</mxfile>